<?xml version="1.0" encoding="UTF-8"?>
<svg width="512" height="512" viewBox="0 0 512 512" xmlns="http://www.w3.org/2000/svg">
  <defs>
    <!-- 主背景渐变 -->
    <linearGradient id="mainBg" x1="0%" y1="0%" x2="100%" y2="100%">
      <stop offset="0%" style="stop-color:#1E88E5;stop-opacity:1" />
      <stop offset="100%" style="stop-color:#1565C0;stop-opacity:1" />
    </linearGradient>
    
    <!-- Excel表格渐变 -->
    <linearGradient id="tableBg" x1="0%" y1="0%" x2="0%" y2="100%">
      <stop offset="0%" style="stop-color:#ffffff;stop-opacity:1" />
      <stop offset="100%" style="stop-color:#f8f9fa;stop-opacity:1" />
    </linearGradient>
    
    <!-- 转换箭头渐变 -->
    <linearGradient id="arrowBg" x1="0%" y1="0%" x2="100%" y2="0%">
      <stop offset="0%" style="stop-color:#FF6B35;stop-opacity:1" />
      <stop offset="100%" style="stop-color:#FF8F00;stop-opacity:1" />
    </linearGradient>
    
    <!-- AI徽章渐变 -->
    <linearGradient id="aiBg" x1="0%" y1="0%" x2="100%" y2="100%">
      <stop offset="0%" style="stop-color:#9C27B0;stop-opacity:1" />
      <stop offset="100%" style="stop-color:#7B1FA2;stop-opacity:1" />
    </linearGradient>
    
    <!-- 阴影滤镜 -->
    <filter id="shadow" x="-50%" y="-50%" width="200%" height="200%">
      <feDropShadow dx="0" dy="4" stdDeviation="8" flood-color="#000000" flood-opacity="0.25"/>
    </filter>
    
    <!-- 内阴影 -->
    <filter id="innerShadow" x="-50%" y="-50%" width="200%" height="200%">
      <feOffset dx="0" dy="2"/>
      <feGaussianBlur stdDeviation="3" result="offset-blur"/>
      <feFlood flood-color="#000000" flood-opacity="0.1"/>
      <feComposite in2="offset-blur" operator="in"/>
    </filter>
  </defs>
  
  <!-- 主背景圆角矩形 -->
  <rect x="0" y="0" width="512" height="512" rx="96" ry="96" fill="url(#mainBg)"/>
  
  <!-- 装饰性图案 -->
  <circle cx="100" cy="100" r="2" fill="rgba(255,255,255,0.1)"/>
  <circle cx="412" cy="100" r="3" fill="rgba(255,255,255,0.15)"/>
  <circle cx="80" cy="400" r="2.5" fill="rgba(255,255,255,0.1)"/>
  <circle cx="450" cy="380" r="2" fill="rgba(255,255,255,0.1)"/>
  
  <!-- 左侧Excel表格 -->
  <g transform="translate(80, 160)">
    <!-- 表格容器 -->
    <rect x="0" y="0" width="140" height="192" rx="16" ry="16" fill="url(#tableBg)" filter="url(#shadow)"/>
    
    <!-- Excel绿色标题栏 -->
    <rect x="0" y="0" width="140" height="40" rx="16" ry="16" fill="#217346"/>
    <rect x="0" y="24" width="140" height="16" fill="#217346"/>
    
    <!-- Excel图标 -->
    <rect x="12" y="8" width="24" height="24" rx="4" fill="white"/>
    <text x="24" y="24" text-anchor="middle" fill="#217346" font-family="Arial, sans-serif" font-size="16" font-weight="bold">X</text>
    
    <!-- 表格标题 -->
    <text x="45" y="25" fill="white" font-family="Arial, sans-serif" font-size="14" font-weight="600">Original Data</text>
    
    <!-- 表格网格 -->
    <rect x="16" y="56" width="108" height="120" fill="white" stroke="#e0e0e0" stroke-width="1"/>
    
    <!-- 网格线 -->
    <line x1="16" y1="80" x2="124" y2="80" stroke="#e0e0e0" stroke-width="1"/>
    <line x1="16" y1="104" x2="124" y2="104" stroke="#e0e0e0" stroke-width="1"/>
    <line x1="16" y1="128" x2="124" y2="128" stroke="#e0e0e0" stroke-width="1"/>
    <line x1="16" y1="152" x2="124" y2="152" stroke="#e0e0e0" stroke-width="1"/>
    
    <line x1="52" y1="56" x2="52" y2="176" stroke="#e0e0e0" stroke-width="1"/>
    <line x1="88" y1="56" x2="88" y2="176" stroke="#e0e0e0" stroke-width="1"/>
    
    <!-- 原始数据样例 -->
    <rect x="20" y="84" width="28" height="8" rx="2" fill="#bdbdbd"/>
    <rect x="56" y="84" width="28" height="8" rx="2" fill="#bdbdbd"/>
    <rect x="92" y="84" width="28" height="8" rx="2" fill="#bdbdbd"/>
    
    <rect x="20" y="108" width="24" height="8" rx="2" fill="#bdbdbd"/>
    <rect x="56" y="108" width="32" height="8" rx="2" fill="#bdbdbd"/>
    <rect x="92" y="108" width="20" height="8" rx="2" fill="#bdbdbd"/>
    
    <rect x="20" y="132" width="30" height="8" rx="2" fill="#bdbdbd"/>
    <rect x="56" y="132" width="26" height="8" rx="2" fill="#bdbdbd"/>
    <rect x="92" y="132" width="28" height="8" rx="2" fill="#bdbdbd"/>
  </g>
  
  <!-- 转换箭头和AI标识 -->
  <g transform="translate(256, 256)">
    <!-- 转换箭头 -->
    <path d="M -40 0 L 8 -20 L 8 -8 L 40 -8 L 40 8 L 8 8 L 8 20 Z" fill="url(#arrowBg)" filter="url(#shadow)"/>
    
    <!-- AI智能标识 -->
    <circle cx="0" cy="-60" r="24" fill="url(#aiBg)" filter="url(#shadow)"/>
    <text x="0" y="-52" text-anchor="middle" fill="white" font-family="Arial, sans-serif" font-size="20" font-weight="bold">AI</text>
    
    <!-- 魔法效果点 -->
    <circle cx="-20" cy="-40" r="3" fill="#FFD700" opacity="0.8"/>
    <circle cx="25" cy="-35" r="2" fill="#FFD700" opacity="0.6"/>
    <circle cx="-15" cy="-75" r="2.5" fill="#FFD700" opacity="0.7"/>
  </g>
  
  <!-- 右侧转换后表格 -->
  <g transform="translate(292, 160)">
    <!-- 表格容器 -->
    <rect x="0" y="0" width="140" height="192" rx="16" ry="16" fill="url(#tableBg)" filter="url(#shadow)"/>
    
    <!-- 成功绿色标题栏 -->
    <rect x="0" y="0" width="140" height="40" rx="16" ry="16" fill="#4CAF50"/>
    <rect x="0" y="24" width="140" height="16" fill="#4CAF50"/>
    
    <!-- 成功图标 -->
    <circle cx="24" cy="20" r="12" fill="white"/>
    <path d="M 18 20 L 22 24 L 30 16" stroke="#4CAF50" stroke-width="3" fill="none" stroke-linecap="round" stroke-linejoin="round"/>
    
    <!-- 表格标题 -->
    <text x="45" y="25" fill="white" font-family="Arial, sans-serif" font-size="14" font-weight="600">Transformed</text>
    
    <!-- 表格网格 -->
    <rect x="16" y="56" width="108" height="120" fill="white" stroke="#e0e0e0" stroke-width="1"/>
    
    <!-- 网格线 -->
    <line x1="16" y1="80" x2="124" y2="80" stroke="#e0e0e0" stroke-width="1"/>
    <line x1="16" y1="104" x2="124" y2="104" stroke="#e0e0e0" stroke-width="1"/>
    <line x1="16" y1="128" x2="124" y2="128" stroke="#e0e0e0" stroke-width="1"/>
    <line x1="16" y1="152" x2="124" y2="152" stroke="#e0e0e0" stroke-width="1"/>
    
    <line x1="52" y1="56" x2="52" y2="176" stroke="#e0e0e0" stroke-width="1"/>
    <line x1="88" y1="56" x2="88" y2="176" stroke="#e0e0e0" stroke-width="1"/>
    
    <!-- 转换后数据样例（绿色表示已转换） -->
    <rect x="20" y="84" width="28" height="8" rx="2" fill="#4CAF50"/>
    <rect x="56" y="84" width="28" height="8" rx="2" fill="#4CAF50"/>
    <rect x="92" y="84" width="28" height="8" rx="2" fill="#4CAF50"/>
    
    <rect x="20" y="108" width="24" height="8" rx="2" fill="#4CAF50"/>
    <rect x="56" y="108" width="32" height="8" rx="2" fill="#4CAF50"/>
    <rect x="92" y="108" width="20" height="8" rx="2" fill="#4CAF50"/>
    
    <rect x="20" y="132" width="30" height="8" rx="2" fill="#4CAF50"/>
    <rect x="56" y="132" width="26" height="8" rx="2" fill="#4CAF50"/>
    <rect x="92" y="132" width="28" height="8" rx="2" fill="#4CAF50"/>
  </g>
  
  <!-- 底部应用名称 -->
  <g transform="translate(256, 420)">
    <text x="0" y="0" text-anchor="middle" fill="white" font-family="Arial, sans-serif" font-size="24" font-weight="600" opacity="0.9">Excel Transformer</text>
  </g>
  
  <!-- 装饰性光晕效果 -->
  <circle cx="256" cy="100" r="60" fill="rgba(255,255,255,0.03)"/>
  <circle cx="256" cy="400" r="80" fill="rgba(255,255,255,0.02)"/>
</svg> 